<svg width="255" height="83" viewBox="0 0 255 83" fill="none" xmlns="http://www.w3.org/2000/svg">
<g filter="url(#filter0_d_3_16)">
<path d="M50.8125 7.3125C50.9375 7.5625 51 8.4375 51 9.9375C51.0625 11.4375 51.0625 13.25 51 15.375C51 17.5 50.9375 19.7812 50.8125 22.2188C50.6875 24.5938 50.5312 26.8438 50.3438 28.9688C50.2188 30.1562 50 31.9375 49.6875 34.3125C49.4375 36.6875 49.125 39.3125 48.75 42.1875C48.375 45.0625 47.9688 48.0312 47.5312 51.0938C47.1562 54.0938 46.7812 56.875 46.4062 59.4375C46.0312 61.9375 45.6875 64.0312 45.375 65.7188C45.125 67.4062 44.9375 68.3125 44.8125 68.4375C44.5625 68.625 44.1562 69.0938 43.5938 69.8438C43.0312 70.5312 42.4062 71.25 41.7188 72C41.0938 72.6875 40.5 73.25 39.9375 73.6875C39.375 74.125 39 74.1875 38.8125 73.875C38.6875 73.25 38.625 71.3125 38.625 68.0625C38.625 66.6875 38.625 64.9688 38.625 62.9062C38.6875 60.7812 38.75 58.2188 38.8125 55.2188C38.9375 52.2188 39.0938 48.7188 39.2812 44.7188C39.4688 40.7188 39.6875 36.0938 39.9375 30.8438C38.6875 35.0938 37.5625 38.8438 36.5625 42.0938C35.625 45.3438 34.7812 48.1875 34.0312 50.625C33.3438 53 32.75 55.0312 32.25 56.7188C31.75 58.3438 31.3125 59.6875 30.9375 60.75C30.125 63.25 29.5938 64.7188 29.3438 65.1562C29.0938 65.2188 28.6875 65.0312 28.125 64.5938C27.625 64.1562 27.0312 63.5312 26.3438 62.7188C25.7188 61.8438 25.0625 60.8125 24.375 59.625C23.75 58.4375 23.2188 57.125 22.7812 55.6875C22.3438 54.375 21.7812 52.625 21.0938 50.4375C20.4688 48.5625 19.6562 46.125 18.6562 43.125C17.6562 40.0625 16.4375 36.25 15 31.6875C15.375 36.8125 15.6875 41.3125 15.9375 45.1875C16.1875 49.0625 16.375 52.4375 16.5 55.3125C16.6875 58.1875 16.8125 60.625 16.875 62.625C17 64.5625 17.0625 66.1875 17.0625 67.5C17.125 70.5 17.0312 72.2188 16.7812 72.6562C16.1562 72.6562 15.4688 72.375 14.7188 71.8125C14.0312 71.1875 13.3438 70.4688 12.6562 69.6562C12.0312 68.7812 11.4688 67.9375 10.9688 67.125C10.5312 66.3125 10.2812 65.7188 10.2188 65.3438C10.1562 65.0938 9.96875 63.9375 9.65625 61.875C9.34375 59.8125 8.96875 57.1875 8.53125 54C8.15625 50.75 7.71875 47.125 7.21875 43.125C6.78125 39.0625 6.34375 34.9375 5.90625 30.75C5.53125 26.5625 5.21875 22.5 4.96875 18.5625C4.71875 14.5625 4.59375 11 4.59375 7.875C4.59375 7.375 5.21875 6.71875 6.46875 5.90625C7.71875 5.03125 9.125 4.21875 10.6875 3.46875C12.3125 2.65625 13.8125 1.96875 15.1875 1.40625C16.5625 0.78125 17.4062 0.46875 17.7188 0.46875C17.9688 0.46875 18.2188 1.1875 18.4688 2.625C18.7812 4.0625 19.125 5.875 19.5 8.0625C19.875 10.25 20.2812 12.6875 20.7188 15.375C21.1562 18.0625 21.6562 20.625 22.2188 23.0625C22.6562 25.5625 23.1875 28.1562 23.8125 30.8438C24.3125 33.1562 24.875 35.7188 25.5 38.5312C26.1875 41.2812 26.9375 43.9688 27.75 46.5938C28.625 42.7812 29.4062 39.3438 30.0938 36.2812C30.8438 33.1562 31.5 30.5 32.0625 28.3125C32.75 25.75 33.3438 23.4688 33.8438 21.4688C34.9688 16.5938 36.0625 12.75 37.125 9.9375C38.25 7.125 38.9688 5.46875 39.2812 4.96875C39.4688 4.71875 40.125 4.65625 41.25 4.78125C42.4375 4.90625 43.7188 5.125 45.0938 5.4375C46.4688 5.6875 47.7188 6 48.8438 6.375C50.0312 6.75 50.6875 7.0625 50.8125 7.3125ZM80.1562 22.6875C80.5312 23.125 80.875 23.5938 81.1875 24.0938C81.5 24.5312 81.7812 25.1562 82.0312 25.9688C82.2812 26.7188 82.4688 27.7188 82.5938 28.9688C82.7812 30.2188 82.875 31.8438 82.875 33.8438C82.875 37.0312 82.7812 40.25 82.5938 43.5C82.4688 46.6875 82.3438 49.5 82.2188 51.9375C82.1562 54.125 82.0938 56.1562 82.0312 58.0312C81.9688 59.9062 81.9062 61.5625 81.8438 63C81.7812 64.375 81.6875 65.4688 81.5625 66.2812C81.5 67.0938 81.4375 67.5312 81.375 67.5938C81.125 67.7812 80.7188 67.7188 80.1562 67.4062C79.6562 67.0312 79.0938 66.5625 78.4688 66C77.9062 65.4375 77.375 64.8438 76.875 64.2188C76.375 63.5938 76.0625 63.0938 75.9375 62.7188C75.9375 62.4062 75.8438 61.5 75.6562 60C74.1562 60.875 72.5 61.5 70.6875 61.875C68.875 62.1875 67.0625 62.3125 65.25 62.25C63.5 62.125 61.875 61.7812 60.375 61.2188C58.875 60.6562 57.75 59.9062 57 58.9688C56.6875 58.5938 56.4062 58.0312 56.1562 57.2812C55.9688 56.5312 55.7812 55.6875 55.5938 54.75C55.4688 53.75 55.3438 52.7188 55.2188 51.6562C55.0938 50.5312 55 49.5 54.9375 48.5625C54.8125 46.125 55.125 44.0312 55.875 42.2812C56.625 40.4688 58 39.125 60 38.25C60.875 37.875 62.0312 37.6875 63.4688 37.6875C64.9688 37.625 66.4375 37.6875 67.875 37.875C69.375 38 70.7188 38.1875 71.9062 38.4375C73.0938 38.625 73.8438 38.7812 74.1562 38.9062C73.9062 35.7188 73.7188 32.9688 73.5938 30.6562C73.4688 28.2812 73.2188 26.75 72.8438 26.0625C72.5312 25.625 72.1562 25.1875 71.7188 24.75C71.3438 24.4375 70.8438 24.0938 70.2188 23.7188C69.5938 23.3438 68.8438 23.0625 67.9688 22.875C67.2812 22.75 66.6562 23.0312 66.0938 23.7188C65.5938 24.3438 65.125 25.4688 64.6875 27.0938C64.3125 28.6562 64.0938 31.0625 64.0312 34.3125C61.8438 34.375 60.1562 34.375 58.9688 34.3125C57.8438 34.1875 57 34.0625 56.4375 33.9375C55.75 33.8125 55.3438 33.6562 55.2188 33.4688C55.0938 33.2188 55.1562 32.3125 55.4062 30.75C55.6562 29.125 56 27.375 56.4375 25.5C56.9375 23.625 57.5 21.8438 58.125 20.1562C58.8125 18.4688 59.5312 17.4062 60.2812 16.9688C61.7812 16.0938 63.5625 15.7812 65.625 16.0312C67.75 16.2812 69.8125 16.8125 71.8125 17.625C73.8125 18.4375 75.5938 19.3438 77.1562 20.3438C78.7188 21.3438 79.7188 22.125 80.1562 22.6875ZM74.3438 50.0625C74.3438 49.75 74.375 49.3438 74.4375 48.8438C74.5 48.2812 74.5312 47.7188 74.5312 47.1562C74.5312 46.5938 74.5 46.0625 74.4375 45.5625C74.4375 45.0625 74.375 44.6875 74.25 44.4375C74.0625 44.0625 73.5 43.75 72.5625 43.5C71.6875 43.25 70.6875 43.0938 69.5625 43.0312C68.4375 42.9062 67.375 42.875 66.375 42.9375C65.375 42.9375 64.6875 43.0625 64.3125 43.3125C63.8125 43.625 63.4375 44.0625 63.1875 44.625C63 45.1875 62.875 46.0625 62.8125 47.25C62.8125 47.8125 62.8438 48.4062 62.9062 49.0312C62.9688 49.6562 63.0312 50.2812 63.0938 50.9062C63.2188 51.4688 63.3438 51.9688 63.4688 52.4062C63.6562 52.8438 63.8438 53.125 64.0312 53.25C64.4688 53.5625 65.2188 53.8438 66.2812 54.0938C67.4062 54.2812 68.5312 54.3438 69.6562 54.2812C70.7812 54.1562 71.8125 53.7812 72.75 53.1562C73.6875 52.5312 74.2188 51.5 74.3438 50.0625ZM109.219 20.9062C109.719 21.2188 110.188 21.8438 110.625 22.7812C111.125 23.6562 111.562 24.6875 111.938 25.875C112.375 27 112.719 28.2188 112.969 29.5312C113.281 30.8438 113.531 32.0625 113.719 33.1875C113.969 34.3125 114.125 35.2812 114.188 36.0938C114.25 36.8438 114.25 37.3125 114.188 37.5C114.062 37.75 113.688 38 113.062 38.25C112.5 38.5 111.656 38.7812 110.531 39.0938C109.406 39.4062 107.844 39.75 105.844 40.125C105.719 36.6875 105.469 34.0938 105.094 32.3438C104.719 30.5312 104.312 29.25 103.875 28.5C103.375 27.625 102.844 27.1875 102.281 27.1875C101.719 27.4375 101.219 27.75 100.781 28.125C100.344 28.4375 99.9688 28.7812 99.6562 29.1562C99.2812 29.5938 98.9375 30.0625 98.625 30.5625C98.5 30.75 98.375 31.1875 98.25 31.875C98.125 32.5625 98 33.5938 97.875 34.9688C97.875 35.4062 97.8438 36.3125 97.7812 37.6875C97.7812 39.0625 97.75 40.6562 97.6875 42.4688C97.6875 44.2812 97.6562 46.1875 97.5938 48.1875C97.5938 50.1875 97.5625 52.0625 97.5 53.8125C97.5 55.5 97.4688 56.9375 97.4062 58.125C97.4062 59.3125 97.375 60 97.3125 60.1875C97.1875 60.5 96.875 60.9375 96.375 61.5C95.875 62.0625 95.3125 62.5938 94.6875 63.0938C94.0625 63.5312 93.4688 63.9062 92.9062 64.2188C92.3438 64.4688 91.9688 64.4375 91.7812 64.125C91.5938 63.9375 91.4062 63.125 91.2188 61.6875C91.0312 60.25 90.8125 58.5 90.5625 56.4375C90.375 54.3125 90.1562 52 89.9062 49.5C89.6562 47 89.4375 44.5938 89.25 42.2812C89.0625 39.9688 88.9062 37.9062 88.7812 36.0938C88.6562 34.2188 88.5625 32.875 88.5 32.0625C88.4375 30.875 88.375 29.5625 88.3125 28.125C88.25 26.6875 88.1875 25.3438 88.125 24.0938C88.125 22.7812 88.125 21.6562 88.125 20.7188C88.1875 19.7188 88.3125 19.125 88.5 18.9375C88.625 18.75 89.0312 18.7188 89.7188 18.8438C90.4688 18.9062 91.25 19.0938 92.0625 19.4062C92.9375 19.6562 93.75 20 94.5 20.4375C95.25 20.875 95.75 21.2812 96 21.6562C96.1875 21.9688 96.375 22.4375 96.5625 23.0625C97.75 22.4375 98.875 21.875 99.9375 21.375C101.062 20.8125 102.125 20.4062 103.125 20.1562C104.188 19.9062 105.219 19.8438 106.219 19.9688C107.219 20.0312 108.219 20.3438 109.219 20.9062ZM125.25 71.4375C124.812 71.5625 124.312 71.4062 123.75 70.9688C123.188 70.5312 122.625 70 122.062 69.375C121.562 68.6875 121.125 67.9688 120.75 67.2188C120.375 66.4688 120.125 65.8438 120 65.3438C119.562 59.8438 119.188 54.9375 118.875 50.625C118.625 46.25 118.406 42.375 118.219 39C118.031 35.625 117.875 32.7188 117.75 30.2812C117.688 27.7812 117.656 25.6562 117.656 23.9062C117.594 19.8438 117.656 17.0312 117.844 15.4688C118.031 14.3438 118.531 13.2188 119.344 12.0938C120.219 10.9688 121.125 10 122.062 9.1875C123.062 8.375 123.969 7.75 124.781 7.3125C125.656 6.875 126.219 6.75 126.469 6.9375C126.719 7.125 126.906 8.1875 127.031 10.125C127.156 12 127.25 14.4688 127.312 17.5312C127.375 20.5938 127.375 24.0312 127.312 27.8438C127.312 31.6562 127.25 35.5625 127.125 39.5625C127.062 43.5625 126.969 47.4688 126.844 51.2812C126.719 55.0938 126.562 58.5 126.375 61.5C126.188 64.4375 126 66.8125 125.812 68.625C125.625 70.4375 125.438 71.375 125.25 71.4375ZM156.938 22.4062C157.562 22.7812 158.188 23.4688 158.812 24.4688C159.5 25.4062 160.094 26.5312 160.594 27.8438C161.156 29.1562 161.594 30.5625 161.906 32.0625C162.219 33.5 162.375 34.875 162.375 36.1875C162.375 37.125 162.25 38.4375 162 40.125C161.812 41.75 161.531 43.5625 161.156 45.5625C160.781 47.5 160.375 49.5312 159.938 51.6562C159.5 53.7188 159.062 55.625 158.625 57.375C158.25 59.125 157.906 60.625 157.594 61.875C157.281 63.0625 157.062 63.7812 156.938 64.0312C156.625 64.7812 156.344 65.4375 156.094 66C155.906 66.5 155.656 66.875 155.344 67.125C154.656 67.625 153.781 68 152.719 68.25C151.656 68.4375 150.562 68.5625 149.438 68.625C148.312 68.6875 147.219 68.6875 146.156 68.625C145.156 68.5 144.375 68.3438 143.812 68.1562C143.562 68.0938 143.281 68.0312 142.969 67.9688C142.719 67.8438 142.438 67.7188 142.125 67.5938C141.5 68.6562 140.781 69.625 139.969 70.5C139.156 71.3125 138.406 71.6562 137.719 71.5312C137.469 71.4688 137.188 70.4375 136.875 68.4375C136.625 66.4375 136.344 63.8125 136.031 60.5625C135.719 57.25 135.406 53.5 135.094 49.3125C134.781 45.125 134.5 40.8438 134.25 36.4688C134 32.0312 133.781 27.6875 133.594 23.4375C133.406 19.1875 133.25 15.4062 133.125 12.0938C133.062 8.71875 133.062 5.96875 133.125 3.84375C133.188 1.65625 133.344 0.46875 133.594 0.28125C133.844 0.09375 134.406 0.25 135.281 0.75C136.219 1.1875 137.219 1.875 138.281 2.8125C139.344 3.6875 140.312 4.75 141.188 6C142.125 7.25 142.75 8.53125 143.062 9.84375C143.25 10.8437 143.375 12.5625 143.438 15C143.562 17.4375 143.625 20.3125 143.625 23.625C146.375 22.5625 148.906 21.875 151.219 21.5625C153.594 21.25 155.5 21.5312 156.938 22.4062ZM152.906 36.1875C152.906 35.1875 152.75 34.2188 152.438 33.2812C152.125 32.2812 151.75 31.4375 151.312 30.75C150.875 30 150.406 29.4375 149.906 29.0625C149.406 28.6875 148.969 28.5625 148.594 28.6875C147.906 28.8125 147.25 29 146.625 29.25C146 29.4375 145.469 29.625 145.031 29.8125C144.469 30.0625 144 30.2812 143.625 30.4688C143.562 34.1562 143.469 37.9062 143.344 41.7188C143.281 45.5312 143.25 49.0938 143.25 52.4062C143.25 54.0312 143.281 55.4688 143.344 56.7188C143.406 57.9062 143.438 58.6562 143.438 58.9688C143.625 60.4688 144.031 61.5312 144.656 62.1562C144.844 62.2812 145.125 62.4688 145.5 62.7188C145.938 62.9062 146.375 63.0938 146.812 63.2812C147.312 63.4062 147.781 63.5 148.219 63.5625C148.656 63.5625 149.031 63.4375 149.344 63.1875C149.406 63.125 149.531 62.4375 149.719 61.125C149.969 59.75 150.219 58.0938 150.469 56.1562C150.719 54.2188 150.969 52.125 151.219 49.875C151.531 47.5625 151.812 45.4375 152.062 43.5C152.312 41.5 152.5 39.8125 152.625 38.4375C152.812 37.0625 152.906 36.3125 152.906 36.1875ZM187.125 20.7188C187.562 21.0938 187.969 21.8125 188.344 22.875C188.781 23.9375 189.156 25.2188 189.469 26.7188C189.781 28.2188 190.062 29.8438 190.312 31.5938C190.562 33.3438 190.781 35.0625 190.969 36.75C191.156 38.4375 191.281 40.0312 191.344 41.5312C191.469 42.9688 191.562 44.1562 191.625 45.0938C191.688 46.2188 191.719 47.4062 191.719 48.6562C191.781 49.8438 191.781 51 191.719 52.125C191.719 53.1875 191.656 54.1562 191.531 55.0312C191.469 55.9062 191.344 56.5625 191.156 57C190.781 57.9375 190.125 58.5938 189.188 58.9688C188.312 59.2812 187.312 59.5 186.188 59.625C185.625 59.6875 184.656 59.7188 183.281 59.7188C181.969 59.6562 180.531 59.5938 178.969 59.5312C177.469 59.4062 176.031 59.2812 174.656 59.1562C173.281 59.0312 172.25 58.9062 171.562 58.7812C170.188 58.4688 169.188 58.0625 168.562 57.5625C168 57.0625 167.438 56.3438 166.875 55.4062C166.688 55.0312 166.531 54.0938 166.406 52.5938C166.281 51.0312 166.188 49.1875 166.125 47.0625C166.125 44.875 166.156 42.5312 166.219 40.0312C166.281 37.5312 166.375 35.1562 166.5 32.9062C166.688 30.6562 166.875 28.6875 167.062 27C167.312 25.3125 167.625 24.1875 168 23.625C168.625 22.75 169.688 21.9375 171.188 21.1875C172.75 20.4375 174.156 19.8438 175.406 19.4062C176.031 19.2188 176.844 19.0938 177.844 19.0312C178.906 18.9062 180 18.9062 181.125 19.0312C182.312 19.0938 183.438 19.2812 184.5 19.5938C185.562 19.8438 186.438 20.2188 187.125 20.7188ZM181.875 49.7812C182 49.5312 182.125 48.7812 182.25 47.5312C182.438 46.2188 182.562 44.6562 182.625 42.8438C182.75 41.0312 182.812 39.0938 182.812 37.0312C182.875 34.9688 182.906 33.0625 182.906 31.3125C182.906 29.5625 182.844 28.0938 182.719 26.9062C182.594 25.6562 182.438 24.9375 182.25 24.75C181.938 24.5 181.469 24.4062 180.844 24.4688C180.281 24.4688 179.688 24.5625 179.062 24.75C178.438 24.875 177.875 25.0625 177.375 25.3125C176.875 25.5 176.531 25.6875 176.344 25.875C175.531 26.5625 175.094 27.6875 175.031 29.25C175.031 29.6875 174.969 30.9375 174.844 33C174.781 35 174.75 37.1875 174.75 39.5625C174.75 41.875 174.781 44.0312 174.844 46.0312C174.969 48.0312 175.188 49.25 175.5 49.6875C175.812 50.125 176.25 50.4688 176.812 50.7188C177.438 50.9062 178.062 51 178.688 51C179.375 51 180 50.9062 180.562 50.7188C181.188 50.4688 181.625 50.1562 181.875 49.7812ZM217.125 20.9062C217.625 21.2188 218.094 21.8438 218.531 22.7812C219.031 23.6562 219.469 24.6875 219.844 25.875C220.281 27 220.625 28.2188 220.875 29.5312C221.188 30.8438 221.438 32.0625 221.625 33.1875C221.875 34.3125 222.031 35.2812 222.094 36.0938C222.156 36.8438 222.156 37.3125 222.094 37.5C221.969 37.75 221.594 38 220.969 38.25C220.406 38.5 219.562 38.7812 218.438 39.0938C217.312 39.4062 215.75 39.75 213.75 40.125C213.625 36.6875 213.375 34.0938 213 32.3438C212.625 30.5312 212.219 29.25 211.781 28.5C211.281 27.625 210.75 27.1875 210.188 27.1875C209.625 27.4375 209.125 27.75 208.688 28.125C208.25 28.4375 207.875 28.7812 207.562 29.1562C207.188 29.5938 206.844 30.0625 206.531 30.5625C206.406 30.75 206.281 31.1875 206.156 31.875C206.031 32.5625 205.906 33.5938 205.781 34.9688C205.781 35.4062 205.75 36.3125 205.688 37.6875C205.688 39.0625 205.656 40.6562 205.594 42.4688C205.594 44.2812 205.562 46.1875 205.5 48.1875C205.5 50.1875 205.469 52.0625 205.406 53.8125C205.406 55.5 205.375 56.9375 205.312 58.125C205.312 59.3125 205.281 60 205.219 60.1875C205.094 60.5 204.781 60.9375 204.281 61.5C203.781 62.0625 203.219 62.5938 202.594 63.0938C201.969 63.5312 201.375 63.9062 200.812 64.2188C200.25 64.4688 199.875 64.4375 199.688 64.125C199.5 63.9375 199.312 63.125 199.125 61.6875C198.938 60.25 198.719 58.5 198.469 56.4375C198.281 54.3125 198.062 52 197.812 49.5C197.562 47 197.344 44.5938 197.156 42.2812C196.969 39.9688 196.812 37.9062 196.688 36.0938C196.562 34.2188 196.469 32.875 196.406 32.0625C196.344 30.875 196.281 29.5625 196.219 28.125C196.156 26.6875 196.094 25.3438 196.031 24.0938C196.031 22.7812 196.031 21.6562 196.031 20.7188C196.094 19.7188 196.219 19.125 196.406 18.9375C196.531 18.75 196.938 18.7188 197.625 18.8438C198.375 18.9062 199.156 19.0938 199.969 19.4062C200.844 19.6562 201.656 20 202.406 20.4375C203.156 20.875 203.656 21.2812 203.906 21.6562C204.094 21.9688 204.281 22.4375 204.469 23.0625C205.656 22.4375 206.781 21.875 207.844 21.375C208.969 20.8125 210.031 20.4062 211.031 20.1562C212.094 19.9062 213.125 19.8438 214.125 19.9688C215.125 20.0312 216.125 20.3438 217.125 20.9062ZM245.531 20.7188C245.969 21.0938 246.375 21.8125 246.75 22.875C247.188 23.9375 247.562 25.2188 247.875 26.7188C248.188 28.2188 248.469 29.8438 248.719 31.5938C248.969 33.3438 249.188 35.0625 249.375 36.75C249.562 38.4375 249.688 40.0312 249.75 41.5312C249.875 42.9688 249.969 44.1562 250.031 45.0938C250.094 46.2188 250.125 47.4062 250.125 48.6562C250.188 49.8438 250.188 51 250.125 52.125C250.125 53.1875 250.062 54.1562 249.938 55.0312C249.875 55.9062 249.75 56.5625 249.562 57C249.188 57.9375 248.531 58.5938 247.594 58.9688C246.719 59.2812 245.719 59.5 244.594 59.625C244.031 59.6875 243.062 59.7188 241.688 59.7188C240.375 59.6562 238.938 59.5938 237.375 59.5312C235.875 59.4062 234.438 59.2812 233.062 59.1562C231.688 59.0312 230.656 58.9062 229.969 58.7812C228.594 58.4688 227.594 58.0625 226.969 57.5625C226.406 57.0625 225.844 56.3438 225.281 55.4062C225.094 55.0312 224.938 54.0938 224.812 52.5938C224.688 51.0312 224.594 49.1875 224.531 47.0625C224.531 44.875 224.562 42.5312 224.625 40.0312C224.688 37.5312 224.781 35.1562 224.906 32.9062C225.094 30.6562 225.281 28.6875 225.469 27C225.719 25.3125 226.031 24.1875 226.406 23.625C227.031 22.75 228.094 21.9375 229.594 21.1875C231.156 20.4375 232.562 19.8438 233.812 19.4062C234.438 19.2188 235.25 19.0938 236.25 19.0312C237.312 18.9062 238.406 18.9062 239.531 19.0312C240.719 19.0938 241.844 19.2812 242.906 19.5938C243.969 19.8438 244.844 20.2188 245.531 20.7188ZM240.281 49.7812C240.406 49.5312 240.531 48.7812 240.656 47.5312C240.844 46.2188 240.969 44.6562 241.031 42.8438C241.156 41.0312 241.219 39.0938 241.219 37.0312C241.281 34.9688 241.312 33.0625 241.312 31.3125C241.312 29.5625 241.25 28.0938 241.125 26.9062C241 25.6562 240.844 24.9375 240.656 24.75C240.344 24.5 239.875 24.4062 239.25 24.4688C238.688 24.4688 238.094 24.5625 237.469 24.75C236.844 24.875 236.281 25.0625 235.781 25.3125C235.281 25.5 234.938 25.6875 234.75 25.875C233.938 26.5625 233.5 27.6875 233.438 29.25C233.438 29.6875 233.375 30.9375 233.25 33C233.188 35 233.156 37.1875 233.156 39.5625C233.156 41.875 233.188 44.0312 233.25 46.0312C233.375 48.0312 233.594 49.25 233.906 49.6875C234.219 50.125 234.656 50.4688 235.219 50.7188C235.844 50.9062 236.469 51 237.094 51C237.781 51 238.406 50.9062 238.969 50.7188C239.594 50.4688 240.031 50.1562 240.281 49.7812Z" fill="#402222"/>
</g>
<defs>
<filter id="filter0_d_3_16" x="0.59375" y="0" width="253.625" height="82.3438" filterUnits="userSpaceOnUse" color-interpolation-filters="sRGB">
<feFlood flood-opacity="0" result="BackgroundImageFix"/>
<feColorMatrix in="SourceAlpha" type="matrix" values="0 0 0 0 0 0 0 0 0 0 0 0 0 0 0 0 0 0 127 0" result="hardAlpha"/>
<feOffset dy="4"/>
<feGaussianBlur stdDeviation="2"/>
<feComposite in2="hardAlpha" operator="out"/>
<feColorMatrix type="matrix" values="0 0 0 0 0 0 0 0 0 0 0 0 0 0 0 0 0 0 0.25 0"/>
<feBlend mode="normal" in2="BackgroundImageFix" result="effect1_dropShadow_3_16"/>
<feBlend mode="normal" in="SourceGraphic" in2="effect1_dropShadow_3_16" result="shape"/>
</filter>
</defs>
</svg>
